<?xml version="1.0" encoding="UTF-8" standalone="no"?>
<!-- Svg Vector Icons : http://www.onlinewebfonts.com/icon -->

<svg
   version="1.1"
   x="0px"
   y="0px"
   viewBox="0 0 1000 1000"
   enable-background="new 0 0 1000 1000"
   xml:space="preserve"
   id="svg2698"
   sodipodi:docname="sun.svg"
   inkscape:version="1.1 (c68e22c387, 2021-05-23)"
   xmlns:inkscape="http://www.inkscape.org/namespaces/inkscape"
   xmlns:sodipodi="http://sodipodi.sourceforge.net/DTD/sodipodi-0.dtd"
   xmlns="http://www.w3.org/2000/svg"
   xmlns:svg="http://www.w3.org/2000/svg"><defs
   id="defs2702" /><sodipodi:namedview
   id="namedview2700"
   pagecolor="#ffffff"
   bordercolor="#666666"
   borderopacity="1.0"
   inkscape:pageshadow="2"
   inkscape:pageopacity="0.0"
   inkscape:pagecheckerboard="0"
   showgrid="false"
   inkscape:zoom="0.873"
   inkscape:cx="499.42726"
   inkscape:cy="500"
   inkscape:window-width="3840"
   inkscape:window-height="2097"
   inkscape:window-x="-8"
   inkscape:window-y="-8"
   inkscape:window-maximized="1"
   inkscape:current-layer="g2662" />
<metadata
   id="metadata2642"> Svg Vector Icons : http://www.onlinewebfonts.com/icon </metadata>
<g
   id="g2696"><g
     id="g2664"><g
       id="g2662"><path
         id="path2644"
         d="m 539.09961,10 c 0,0 -115.8497,24.759458 -102.86914,185.91211 -0.94631,0.19812 -1.91217,0.34053 -2.85547,0.54687 -23.10694,5.05172 -45.19908,12.81712 -66.10352,22.70118 -21.18525,-22.26981 -60.86934,-53.26982 -112.67187,-45.56055 -79.1,11.7 -73.40039,-47.79883 -73.40039,-47.79883 0,0 -64.49114,99.51719 58.73828,204.3125 -0.55439,0.84462 -1.17033,1.64385 -1.7168,2.49414 -19.48178,30.34232 -33.81226,64.37919 -41.76172,100.76758 -0.21327,0.97498 -0.36192,1.97297 -0.5664,2.95117 C 34.757357,423.25981 10,539.09961 10,539.09961 c 0,0 38.099219,-46.09883 85.699219,18.20117 31.106131,42.00738 81.015861,48.15529 111.732421,47.41602 7.9416,22.18596 18.25623,43.26939 30.78906,62.77539 0.54522,0.85164 1.16152,1.6521 1.71485,2.49804 -123.12868,104.79386 -58.73633,204.31055 -58.73633,204.31055 0,0 -5.69961,-59.70039 73.40039,-47.90039 51.66108,7.68822 91.19063,-23.12659 112.49023,-45.38281 9.1854,4.36714 18.62173,8.30976 28.28516,11.7832 -0.70393,30.80617 5.52038,80.46938 47.42578,111.5 64.2,47.6 18.09961,85.69922 18.09961,85.69922 0,0 115.79427,-24.74682 102.87891,-185.79492 0.9762,-0.20409 1.97231,-0.35161 2.94531,-0.56446 23.1014,-5.0505 45.18786,-12.8147 66.08789,-22.69531 21.20719,22.33498 60.85742,53.15363 112.58789,45.45508 79.1,-11.7 73.40039,47.79883 73.40039,47.79883 0,0 64.45516,-99.46008 -58.63281,-204.22266 0.55228,-0.84147 1.16652,-1.63727 1.71094,-2.48437 19.48178,-30.34232 33.81226,-64.37919 41.76171,-100.76758 0.21285,-0.973 0.36037,-1.96911 0.56446,-2.94531 C 965.25318,576.69466 990,460.90039 990,460.90039 c 0,0 -38.09922,46.10039 -85.69922,-18.09961 -31.07784,-41.96917 -80.83928,-48.14597 -111.63476,-47.41992 -7.94146,-22.18469 -18.25493,-43.26845 -30.78711,-62.77344 -0.55685,-0.86981 -1.18665,-1.68691 -1.75196,-2.55078 123.04523,-104.77452 58.67383,-204.25586 58.67383,-204.25586 0,0 5.59961,59.49883 -73.40039,47.79883 -51.68769,-7.69218 -91.2297,23.15717 -112.52148,45.41601 -9.1755,-4.35732 -18.60376,-8.2865 -28.25586,-11.75195 0.71449,-30.80111 -5.48799,-80.51129 -47.42383,-111.564451 C 492.99922,48.099219 539.09961,10 539.09961,10 Z" /></g></g><g
     id="g2666" /><g
     id="g2668" /><g
     id="g2670" /><g
     id="g2672" /><g
     id="g2674" /><g
     id="g2676" /><g
     id="g2678" /><g
     id="g2680" /><g
     id="g2682" /><g
     id="g2684" /><g
     id="g2686" /><g
     id="g2688" /><g
     id="g2690" /><g
     id="g2692" /><g
     id="g2694" /></g>
</svg>
