<?xml version="1.0" encoding="UTF-8" standalone="no"?>
<!-- Created with Inkscape (http://www.inkscape.org/) -->

<svg
   width="210mm"
   height="297mm"
   viewBox="0 0 210 297"
   version="1.1"
   id="svg5"
   inkscape:version="1.1 (c68e22c387, 2021-05-23)"
   sodipodi:docname="tritip.svg"
   xmlns:inkscape="http://www.inkscape.org/namespaces/inkscape"
   xmlns:sodipodi="http://sodipodi.sourceforge.net/DTD/sodipodi-0.dtd"
   xmlns="http://www.w3.org/2000/svg"
   xmlns:svg="http://www.w3.org/2000/svg">
  <sodipodi:namedview
     id="namedview7"
     pagecolor="#ffffff"
     bordercolor="#666666"
     borderopacity="1.0"
     inkscape:pageshadow="2"
     inkscape:pageopacity="0.0"
     inkscape:pagecheckerboard="0"
     inkscape:document-units="mm"
     showgrid="false"
     inkscape:snap-global="false"
     inkscape:zoom="0.77771465"
     inkscape:cx="412.74779"
     inkscape:cy="373.53032"
     inkscape:window-width="1904"
     inkscape:window-height="2081"
     inkscape:window-x="960"
     inkscape:window-y="0"
     inkscape:window-maximized="1"
     inkscape:current-layer="layer1" />
  <defs
     id="defs2" />
  <g
     inkscape:label="Layer 1"
     inkscape:groupmode="layer"
     id="layer1">
    <path
       id="path956"
       style="fill:#000000;stroke:#000000;stroke-width:0.999999px;stroke-linecap:butt;stroke-linejoin:miter;stroke-opacity:1"
       d="m 162.01367,142.72656 c -22.39554,131.71575 35.35583,232.28917 96.43555,267.44922 42.48613,24.45679 116.91036,-14.31483 105.4375,-82.29297 C 352.41386,259.90468 211.05855,282.30449 162.01367,142.72656 Z M 528.7168,323.55859 c -47.88872,0.23558 -89.06163,13.75763 -116.46875,34.10938 C 372.89016,386.894 378.80312,470.6022 445.72461,487.16016 512.6461,503.71812 548.41627,365.14167 695.97852,375.76172 638.28498,338.1136 579.69511,323.30782 528.7168,323.55859 Z M 310.69531,441.50781 c -7.58653,0.0825 -15.52956,1.34134 -23.72851,3.99414 -65.59166,21.22239 -22.90419,157.82784 -153.88086,226.6211 133.57177,3.03159 224.6934,-68.71404 250.61133,-134.25196 15.77463,-39.88879 -19.89624,-96.94081 -73.00196,-96.36328 z"
       transform="scale(0.26458333)" />
  </g>
</svg>
