<?xml version="1.0" encoding="UTF-8" standalone="no"?>
<!-- Created with Inkscape (http://www.inkscape.org/) -->

<svg
   width="210mm"
   height="297mm"
   viewBox="0 0 210 297"
   version="1.1"
   id="svg5"
   inkscape:version="1.1 (c68e22c387, 2021-05-23)"
   sodipodi:docname="winter.svg"
   xmlns:inkscape="http://www.inkscape.org/namespaces/inkscape"
   xmlns:sodipodi="http://sodipodi.sourceforge.net/DTD/sodipodi-0.dtd"
   xmlns="http://www.w3.org/2000/svg"
   xmlns:svg="http://www.w3.org/2000/svg">
  <sodipodi:namedview
     id="namedview7"
     pagecolor="#ffffff"
     bordercolor="#666666"
     borderopacity="1.0"
     inkscape:pageshadow="2"
     inkscape:pageopacity="0.0"
     inkscape:pagecheckerboard="0"
     inkscape:document-units="mm"
     showgrid="false"
     inkscape:zoom="2.1997092"
     inkscape:cx="341.86337"
     inkscape:cy="464.37956"
     inkscape:window-width="1904"
     inkscape:window-height="2081"
     inkscape:window-x="960"
     inkscape:window-y="0"
     inkscape:window-maximized="1"
     inkscape:current-layer="layer1" />
  <defs
     id="defs2" />
  <g
     inkscape:label="Layer 1"
     inkscape:groupmode="layer"
     id="layer1">
    <path
       id="path836"
       style="fill:#000000;stroke-width:0.264583"
       d="m 91.685876,48.648193 c -8.383918,-2.334223 -4.379732,7.938008 -6.013587,12.039574 -4.983705,-1.307719 -11.041473,-9.707282 -15.713713,-4.892241 -5.03651,4.638074 -1.521497,9.4675 3.871275,11.16675 4.046289,2.348936 8.108929,4.669525 12.166965,6.998067 -0.04519,3.727398 0.337407,7.484446 -0.14211,11.187946 -5.223492,-2.215435 -9.487787,-8.741894 -15.258981,-8.270851 -2.93592,4.666332 -0.667399,11.489703 -1.444197,17.0093 0.510493,5.608768 -4.779631,-2.094558 -7.2103,-3.512798 -2.565747,-1.329389 -1.094529,-4.477264 -1.476703,-6.790262 0,-5.285687 0,-10.571376 0,-15.857063 -1.196041,-2.158939 -3.512582,-1.612659 -5.596557,-1.628325 -2.070735,-0.05491 -5.312741,-0.494901 -5.519462,2.27835 -0.07747,4.68848 0.133453,9.398802 -0.392838,14.065872 -4.586972,-2.436939 -8.856646,-5.624531 -13.788075,-7.298203 -5.939141,2.383102 -7.213187,11.220283 0.336963,12.58652 3.275402,2.155063 11.619622,4.711107 3.788238,7.064634 -4.828484,2.214523 -12.476149,5.983057 -6.462257,11.764167 4.547446,6.63369 11.480599,-3.44153 16.770834,-4.74579 4.951703,-5.371692 8.844938,0.20932 12.786005,3.80792 -3.417975,1.92778 -8.506555,3.73458 -12.446413,5.64733 -7.286426,0.78674 -7.567464,8.09643 -0.216466,9.02008 3.704849,2.08708 10.111288,3.73009 12.233698,6.19811 -4.949668,4.72948 -10.200243,3.61512 -15.119193,-0.51667 -4.836922,-2.42621 -12.633217,-10.2231 -15.299923,-1.18857 -3.905689,6.4437 6.66214,8.05912 10.245368,11.27818 3.089354,2.6382 -6.411595,4.48257 -8.3746,6.8277 -8.405016,2.28568 0.744075,16.33561 6.433074,9.29487 3.54484,-1.24234 10.99263,-9.01113 9.252146,-0.68371 0.282794,3.38911 -0.280146,7.10638 0.375605,10.3388 2.490057,2.19118 10.324203,2.92024 10.870554,-1.35583 0.05184,-6.72272 0.104018,-13.44543 0.156372,-20.16814 2.796489,-1.55506 5.518935,-3.25743 8.410858,-4.6302 0.687038,5.98263 -0.102447,12.08256 0.582908,18.07538 5.50267,4.18539 11.819332,-6.70842 16.570148,-7.03978 0.07056,3.66996 -0.03334,7.34018 -0.0647,11.01008 -5.883926,3.5014 -12.006426,6.63856 -17.725639,10.38507 -3.223297,4.67292 4.396452,13.37752 9.146286,7.51956 3.346379,-1.36544 10.514031,-8.37141 8.711015,-0.24725 -0.149402,3.15331 -0.820772,9.08318 4.022389,7.65735 2.023851,-0.19778 4.435557,0.40295 6.220174,-0.28735 1.753058,-3.35659 0.531045,-7.5452 0.870566,-11.26533 3.797657,-0.62217 9.555677,6.98517 14.747027,5.9904 5.06315,-3.91677 5.25564,-10.79997 -1.75683,-12.36599 -4.28018,-2.47752 -8.57166,-4.93546 -12.857905,-7.40248 0.05809,-3.72463 -0.364183,-7.48737 0.159681,-11.18175 5.207544,2.33947 9.504314,8.67645 15.305114,8.28184 2.78784,-4.77111 0.64224,-11.48166 1.37879,-17.02003 -0.52066,-5.60724 4.77619,2.08995 7.20941,3.50279 2.56958,1.32565 1.09686,4.47581 1.4793,6.78864 0,5.28965 0,10.5793 0,15.86895 1.54353,2.69147 4.81314,1.28811 7.31815,1.66317 7.12192,-0.92924 2.35479,-11.34328 4.00313,-16.43953 5.29001,1.66059 10.56201,8.97341 16.02389,6.2918 4.92544,-4.33907 3.36751,-10.2062 -2.85113,-11.82322 -3.18271,-2.07521 -11.17724,-4.41384 -3.47151,-6.63469 5.50739,-2.25548 12.70251,-6.99164 5.97059,-12.77227 -5.22082,-4.43998 -11.55886,4.48025 -17.01388,6.14521 -3.95494,4.43687 -7.13332,0.0682 -10.23872,-2.79844 -4.60391,-2.91258 5.10754,-3.45741 6.80517,-5.39022 3.39089,-1.69148 14.59989,-4.71406 7.88023,-9.11705 -4.41444,-3.11377 -13.75105,-4.24883 -15.46208,-8.19603 3.10131,-1.10446 6.19367,-5.542186 9.24756,-2.33121 5.51396,2.98243 10.68634,6.80005 16.52494,9.05197 5.56433,-2.58761 7.40045,-11.13504 -0.22212,-12.601941 -2.70559,-2.085303 -10.82471,-4.179633 -3.95695,-6.455542 4.62697,-2.762083 14.35441,-5.944656 7.87587,-12.555678 -4.33458,-6.337202 -11.25627,2.996743 -16.37308,4.366948 -1.44574,-1.819254 -0.43866,-7.315988 -0.77426,-10.691317 0.92335,-3.57305 -1.66059,-6.360502 -5.55954,-5.197806 -8.33035,-1.688177 -5.05874,8.466966 -5.72626,13.276855 0,3.220323 0,6.440643 0,9.660964 -3.12578,0.976196 -9.57569,7.832114 -8.69357,1.379466 -1.25289,-4.934982 3.10582,-16.004669 -3.98624,-16.057419 -4.31715,2.292275 -9.16822,7.035733 -12.886407,8.231134 -0.119203,-3.682958 0.0091,-7.367749 0.03444,-11.051336 6.075277,-3.530706 12.279267,-6.853941 18.187517,-10.660848 1.85386,-5.349616 -4.8929,-12.574307 -9.82285,-7.091466 -3.35903,1.316128 -10.174446,8.185163 -8.493345,0.409049 -0.111302,-4.650873 1.232445,-9.495991 -5.559864,-7.91617 z" />
  </g>
</svg>
